<svg width="360" height="640" viewBox="0 0 360 640" fill="none" xmlns="http://www.w3.org/2000/svg">

<g id="andar_2">
<path id="Vector 1" d="M51 589.908H272.285V391.446H309V280.308H272.285V252.523L229.615 242.6V122.531H272.285V50.0923H51V122.531H64.8923V160.238H51V589.908Z" fill="#66B2FF"/>
<path id="Biblioteca" d="M59.4385 581.469V552.7H147.746V581.469H59.4385Z" stroke="black"/>
<path id="s1.12" d="M174.546 581.469V552.7H262.854V581.469H174.546Z" stroke="black"/>
<path id="s1.13" d="M174.546 549.715V518.961H262.854V549.715H174.546Z" stroke="black"/>
<path id="s1.14" d="M174.546 482.238V453.469H262.854V482.238H174.546Z" stroke="black"/>
<path id="s1.18" d="M174.546 359.192V330.423H262.854V359.192H174.546Z" stroke="black"/>
<path id="s1.04" d="M59.4385 359.192V330.423H147.746V359.192H59.4385Z" stroke="black"/>
<path id="s1.05" d="M59.4385 327.438V298.669H147.746V327.438H59.4385Z" stroke="black"/>
<path id="s1.06" d="M59.4385 295.685V264.931H147.746V295.685H59.4385Z" stroke="black"/>
<path id="Casadebanho06" d="M176.531 295.684V255.008H219.192V295.684H176.531Z" stroke="black"/>
<path id="s1.07" d="M59.4385 261.946V231.192H147.746V261.946H59.4385Z" stroke="black"/>
<path id="s1.20" d="M176.531 252.023V211.346H219.192V252.023H176.531Z" stroke="black"/>
<path id="s1.21" d="M176.531 208.361V165.7H219.192V208.361H176.531Z" stroke="black"/>
<path id="s1.22" d="M176.531 162.715V122.038H219.192V162.715H176.531Z" stroke="black"/>
<path id="s1.14_2" d="M192.408 77.3769V56.5461H225.146V77.3769H192.408Z" stroke="black"/>
<path id="s1.14_3" d="M228.131 87.3V56.5461H262.854V87.3H228.131Z" stroke="black"/>
<path id="s1.09" d="M73.3306 160.731V122.038H147.746V160.731H73.3306Z" stroke="black"/>
<path id="s1.08" d="M59.4385 228.208V199.438H147.746V228.208H59.4385Z" stroke="black"/>
<path id="none" d="M59.4385 194.469V165.7H147.746V194.469H59.4385Z" stroke="black"/>
<path id="s1.19" d="M230.116 255.141L262.854 262.962L262.854 327.438L230.116 327.438L230.116 255.141Z" stroke="black"/>
<path id="investigacao" d="M59.4385 478.269V453.469H147.746V478.269H59.4385Z" stroke="black"/>
<path id="s1.01" d="M59.4385 448.5V421.715H127.9V448.5H59.4385Z" stroke="black"/>
<path id="s1.15" d="M194.392 448.5V421.715H262.854V448.5H194.392Z" stroke="black"/>
<path id="s1.02" d="M59.4385 418.731V391.946H127.9V418.731H59.4385Z" stroke="black"/>
<path id="s1.16" d="M194.392 418.731V391.946H262.854V418.731H194.392Z" stroke="black"/>
<path id="s1.03" d="M59.4385 386.977V362.177H127.9V386.977H59.4385Z" stroke="black"/>
<path id="s1.17" d="M194.392 386.977V362.177H262.854V386.977H194.392Z" stroke="black"/>
<path id="Acredita&#195;&#167;&#195;&#163;o e qualidade" d="M174.546 513.992V485.223H262.854V513.992H174.546Z" stroke="black"/>
<path id="Casa de banho 04" d="M59.4385 549.715V518.961H147.746V549.715H59.4385Z" stroke="black"/>
<path id="Escada-1" d="M112.023 481.254V494.146H104.092V481.254H112.023ZM103.092 481.254V494.146H95.1613V481.254H103.092ZM94.1613 481.254V494.146H86.2306V481.254H94.1613ZM85.2306 481.254V494.146H77.2998V481.254H85.2306ZM113.023 494.146V481.254H120.954V494.146H113.023ZM121.954 494.146V481.254H129.884V494.146H121.954ZM130.884 494.146V481.254H138.815V494.146H130.884ZM139.815 494.146V481.254H147.746V494.146H139.815Z" stroke="black"/>
<path id="Escada-2" d="M195.377 304.623V319.5H185.462V304.623H195.377ZM184.462 304.623V319.5H174.546V304.623H184.462ZM196.377 319.5V304.623H206.293V319.5H196.377ZM207.293 319.5V304.623H217.208V319.5H207.293Z" stroke="black"/>
<path id="Escada-3" d="M150.731 78.0206H165.638V87.758H150.731V78.0206ZM150.731 88.758H165.638V98.4954H150.731V88.758ZM165.638 77.0206H150.731V67.2832H165.638V77.0206ZM165.638 66.2832H150.731V56.5459H165.638V66.2832Z" stroke="black"/>
<path id="s1.11_Joalharia" d="M59.4385 86.4294V58.5308H130.847V86.4294H59.4385Z" stroke="black"/>
<path id="s1.10" d="M59.4385 118.183V90.2847H130.847V118.183H59.4385Z" stroke="black"/>
<path id="s1.23_Serigrafia" d="M192.408 118.183V90.2847H263.817V118.183H192.408Z" stroke="black"/>
</g>
</g>
</svg>
