<svg width="299" height="501" viewBox="0 0 299 501" fill="none" xmlns="http://www.w3.org/2000/svg">
<g id="Andar-1">
<g id="Andar-1_2">
<path id="Vector_rua" d="M297.783 500.664V467.862H30.7617V12.6604H0.836914V467.862C0.836914 496.636 11.771 500.664 30.7617 500.664H297.783Z" fill="#E9E8E8"/>
<path id="Vector_predio2" d="M203.98 58.4497H47.4507V113.695H203.98V58.4497Z" fill="#E9E8E8"/>
<path id="Vector_predio1" d="M46.2815 393.626H29.6788C29.6787 385.936 29.6787 384.626 29.6788 376.937H47.0194V134.148L121.732 134.321V191.41L204.93 206.062V229.654H233.708V307.277H204.377L204.562 450.243L46.2815 450.553V393.626Z" fill="#E9E8E8"/>
<path id="Vector_3" d="M137.359 445.41V399.844H198.712V445.41H137.359Z" stroke="black"/>
<path id="Vector_4" d="M52.5 445.41V399.844H116.066V445.41H52.5Z" stroke="black"/>
<path id="Vector_auditorio" d="M219.442 445.821V397.33H297.858V445.821H219.442Z" fill="#E9E8E8" stroke="black"/>
<path id="Vector_cantina" d="M169.826 250.117V234.797H227.858V302.443H136.989V250.617H169.326H169.826V250.117Z" stroke="black"/>
<path id="Vector_papelaria" d="M152 372.5H136.5V352.5H152H167.5V372.5H152Z" stroke="black"/>
<path id="Vector_papelaria_2" d="M184.5 372.5H170.5V352.5H184.5H198.5V372.5H184.5Z" stroke="black"/>
<path id="Vector_banho1" d="M136.316 349.872V327.897H198.498V349.872H136.316Z" stroke="black"/>
<path id="Vector_fotocopia" d="M136.989 325.727V305.232H198.712V325.727H136.989Z" stroke="black"/>
<path id="Vector_sala4" d="M52.8691 279.195V258.39H115.698V279.195H52.8691Z" stroke="black"/>
<path id="Vector_sala3" d="M52.8691 302.443V281.948H115.698V302.443H52.8691Z" stroke="black"/>
<path id="Vector_sala2" d="M52.8691 326.62V305.541H115.698V326.62H52.8691Z" stroke="black"/>
<path id="Vector_sala1" d="M52.8691 350.798V329.409H115.698V350.798H52.8691Z" stroke="black"/>
<path id="Vector_14" d="M97.1235 358.368H115.698V366.035H52.8691V353.587H96.6235V357.868V358.368H97.1235Z" stroke="black"/>
<path id="Vector_banho2" d="M86.0742 255.567V230.911H115.696V255.567H86.0742Z" stroke="black"/>
<path id="Vector_ev" d="M52.8691 184.548V138.981H115.698V184.548H52.8691Z" stroke="black"/>
<path id="Vector_galeria" d="M134.038 174.403V130.04H164.03V174.403H134.038Z" fill="#66B2FF" stroke="black"/>
<path id="Vector_tipografia" d="M52.8691 108.572V87.9055H104.26V108.572H52.8691Z" stroke="black"/>
<path id="Vector_sala5" d="M52.8691 84.3942V64.4849H104.26V84.3942H52.8691Z" stroke="black"/>
<path id="Vector_madeira" d="M136.989 109.467V64.4849H199.818V109.467H136.989Z" stroke="black"/>
<path id="Vector_felipe" d="M107.474 78.72V64.4849H115.698V78.72H107.474Z" stroke="black"/>
<path id="Vector_ae" d="M79.2104 39.9848V0.5H157.05V39.9848H79.2104Z" fill="#E9E8E8" stroke="black"/>
<path id="Vector_estudio" d="M72.6611 230.911H82.8615V255.602H52.8691V187.336H72.1611V230.411V230.911H72.6611Z" stroke="black"/>
<path id="Vector_24" d="M137.359 232.008V200.461L198.712 210.68V232.008H137.359Z" stroke="black"/>
<path id="Vector_25" d="M86.2588 221.382V187.475H115.513V221.382H86.2588Z" stroke="black"/>
<path id="Vector_26" d="M119.28 445.41V399.844H134.146V445.41H119.28Z" stroke="black"/>
<path id="Escada-1" d="M89.5351 368.804V379.314H84.061V368.804H89.5351ZM83.061 368.804V379.314H77.5869V368.804H83.061ZM76.5869 368.804V379.314H71.1128V368.804H76.5869ZM70.1128 368.804V379.314H64.6387V368.804H70.1128ZM90.5351 379.314V368.804H96.0092V379.314H90.5351ZM97.0092 379.314V368.804H102.483V379.314H97.0092ZM103.483 379.314V368.804H108.957V379.314H103.483ZM109.957 379.314V368.804H115.432V379.314H109.957Z" stroke="black"/>
<path id="Escada-2" d="M151.687 236.445V246.955H144.918V236.445H151.687ZM143.918 236.445V246.955H137.149V236.445H143.918ZM152.687 246.955V236.445H159.456V246.955H152.687ZM160.456 246.955V236.445H167.225V246.955H160.456Z" stroke="black"/>
<path id="Escada-3" d="M119.885 80.4912H130.394V87.2601H119.885V80.4912ZM119.885 88.2601H130.394V95.0291H119.885V88.2601ZM130.394 79.4912H119.885V72.7223H130.394V79.4912ZM130.394 71.7223H119.885V64.9533H130.394V71.7223Z" stroke="black"/>
</g>
</g>
</svg>
